<svg xmlns="http://www.w3.org/2000/svg" xmlns:xlink="http://www.w3.org/1999/xlink" width="63.143" height="62.874" viewBox="0 0 63.143 62.874"><defs><linearGradient id="a" y1="0.5" x2="1" y2="0.5" gradientUnits="objectBoundingBox"><stop offset="0" stop-color="#89f7fe"/><stop offset="1" stop-color="#f093fb"/></linearGradient><linearGradient id="b" x1="0.012" y1="0.893" x2="1.01" y2="0.185" xlink:href="#a"/></defs><g transform="translate(-318.32 -34.095)"><path d="M347.91,83.581c1.784.637.775,2.189,3.233,3.319,2.693,1.238,7.9-.356,9.034-6.877s-1.1-11.316-6.73-13.106-10.1,1.332-12.914,6.931-.176,9.648,2.253,10.208S346.4,83.042,347.91,83.581Z" transform="translate(0 -11.317)" fill="#c6cbd2"/><path d="M352.345,70.016c5.7,4.378,12.92,2.079,16.155-2.012s.545-6.787-1.4-6.57-2.059-.795-1.753-3.4-1.824-6.284-8.888-5.823S342.909,62.772,352.345,70.016Z" transform="translate(-5.888 -1.227)" opacity="0.5" fill="url(#a)"/><path d="M348.91,78.554c1.784.637.775,2.189,3.233,3.319,2.693,1.238,7.9-.356,9.034-6.877s-1.1-11.315-6.73-13.105-10.1,1.331-12.914,6.931-.176,9.648,2.253,10.208S347.4,78.015,348.91,78.554Z" transform="translate(-0.709 -7.755)" fill="url(#b)"/><path d="M392.023,50.816c-1.39,1.174.3,3.857,2.053,2.62S393.651,49.441,392.023,50.816Z" transform="translate(-36.982)" fill="#f093fb" opacity="0.8" style="mix-blend-mode:multiply;isolation:isolate"/><path d="M404.007,103.365c-3.133-1.036-5.475,4.133-1.7,5.558C405.781,110.236,407.662,104.574,404.007,103.365Z" transform="translate(-43.252 -37.406)" fill="#89f7fe" opacity="0.8" style="mix-blend-mode:multiply;isolation:isolate"/></g></svg>